<?xml version="1.0" encoding="utf-8"?>
<!-- Generator: Adobe Illustrator 26.5.0, SVG Export Plug-In . SVG Version: 6.00 Build 0)  -->
<svg version="1.1" id="Layer_1" xmlns="http://www.w3.org/2000/svg" xmlns:xlink="http://www.w3.org/1999/xlink" x="0px" y="0px"
	 viewBox="0 0 24 24" style="enable-background:new 0 0 24 24;" xml:space="preserve">
<path d="M19,9c-1.7,0-3,1.3-3,3s1.3,3,3,3s3-1.3,3-3S20.7,9,19,9z M19,13.5c-0.8,0-1.5-0.7-1.5-1.5s0.7-1.5,1.5-1.5s1.5,0.7,1.5,1.5
	S19.8,13.5,19,13.5z"/>
<path d="M5,9c-1.7,0-3,1.3-3,3s1.3,3,3,3s3-1.3,3-3S6.7,9,5,9z M5,13.5c-0.8,0-1.5-0.7-1.5-1.5s0.7-1.5,1.5-1.5s1.5,0.7,1.5,1.5
	S5.8,13.5,5,13.5z"/>
<path d="M12,2c-1.7,0-3,1.3-3,3s1.3,3,3,3s3-1.3,3-3S13.7,2,12,2z M12,6.5c-0.8,0-1.5-0.7-1.5-1.5s0.7-1.5,1.5-1.5s1.5,0.7,1.5,1.5
	S12.8,6.5,12,6.5z"/>
<path d="M12,16c-1.7,0-3,1.3-3,3s1.3,3,3,3s3-1.3,3-3S13.7,16,12,16z M12,20.5c-0.8,0-1.5-0.7-1.5-1.5s0.7-1.5,1.5-1.5
	s1.5,0.7,1.5,1.5S12.8,20.5,12,20.5z"/>
<path d="M14.3,4.2c-0.2,0-0.3,0.1-0.3,0.3v0.9c0,0.2,0.1,0.3,0.3,0.3h3.9l0,0.3v3.6c0,0.2,0.1,0.3,0.3,0.3h0.9
	c0.2,0,0.3-0.1,0.3-0.3V6.1c0-0.2,0-0.4,0-0.6V5.3c0-0.2,0-0.4,0-0.6V4.6c0-0.2-0.1-0.3-0.3-0.3H14.3z"/>
<path d="M9.7,19.8c0.2,0,0.3-0.1,0.3-0.3v-0.9c0-0.2-0.1-0.3-0.3-0.3H6.1l-0.3,0v-3.9c0-0.2-0.1-0.3-0.3-0.3H4.6
	c-0.2,0-0.3,0.1-0.3,0.3V18c0,0.2,0,0.4,0,0.6v0.2c0,0.2,0,0.4,0,0.6v0.2c0,0.2,0.1,0.3,0.3,0.3H9.7z"/>
<rect x="7" y="11.2" width="10" height="1.5"/>
<g>
	<path d="M6.5,5.4c0,0.2-0.1,0.3-0.3,0.3H2.8c-0.2,0-0.3-0.1-0.3-0.3V4.6c0-0.2,0.1-0.3,0.3-0.3h3.4c0.2,0,0.3,0.1,0.3,0.3V5.4z"/>
</g>
<g>
	<path d="M5.5,7.7c0,0.2,0.1,0.2,0.2,0.1l3-2.6c0.1-0.1,0.1-0.3,0-0.4l-3-2.6C5.6,2.1,5.5,2.1,5.5,2.3V7.7z"/>
</g>
<rect x="14" y="18.2" width="4" height="1.5"/>
<g>
	<path d="M18,21.7c0,0.2,0.1,0.2,0.2,0.1l3-2.6c0.1-0.1,0.1-0.3,0-0.4l-3-2.6c-0.1-0.1-0.2-0.1-0.2,0.1V21.7z"/>
</g>
</svg>
