<?xml version="1.0" encoding="utf-8"?>
<!-- Generator: Adobe Illustrator 26.5.0, SVG Export Plug-In . SVG Version: 6.00 Build 0)  -->
<svg version="1.1" id="Layer_1" focusable="false" xmlns="http://www.w3.org/2000/svg" xmlns:xlink="http://www.w3.org/1999/xlink"
	 x="0px" y="0px" viewBox="0 0 30 30" style="enable-background:new 0 0 30 30;" xml:space="preserve">
<style type="text/css">
	.st0{fill:#FFFFFF;}
</style>
<path d="M21,2H7C5.9,2,5,2.9,5,4l0,22c0,1.1,0.9,2,2,2h16c1.1,0,2-0.9,2-2V6L21,2z M23,19H7V4h13v3h3V19z"/>
<g>
	<path class="st0" d="M11.5,24.3c0,0.4-0.1,0.8-0.4,1.2c-0.2,0.3-0.5,0.6-0.9,0.8c-0.4,0.2-0.9,0.3-1.4,0.3c-0.8,0-1.5-0.3-2-0.8
		c-0.5-0.5-0.7-1.3-0.7-2.3v-0.3c0-0.6,0.1-1.2,0.3-1.6C6.7,21,7,20.7,7.4,20.4C7.8,20.1,8.3,20,8.8,20c0.8,0,1.4,0.2,1.9,0.6
		c0.5,0.4,0.7,1,0.8,1.7H9.9c0-0.4-0.1-0.7-0.3-0.8s-0.5-0.3-0.8-0.3c-0.4,0-0.7,0.1-0.8,0.4S7.7,22.4,7.7,23v0.5
		c0,0.7,0.1,1.2,0.3,1.5c0.2,0.3,0.5,0.4,0.9,0.4c0.4,0,0.6-0.1,0.8-0.2s0.3-0.4,0.3-0.8H11.5z"/>
	<path class="st0" d="M15.9,24.8c0-0.2-0.1-0.4-0.2-0.5c-0.2-0.1-0.4-0.3-0.8-0.4s-0.7-0.3-1-0.4c-0.8-0.4-1.2-1-1.2-1.7
		c0-0.4,0.1-0.7,0.3-0.9c0.2-0.3,0.5-0.5,0.9-0.6c0.4-0.2,0.8-0.2,1.3-0.2c0.5,0,0.9,0.1,1.2,0.2c0.4,0.2,0.6,0.4,0.8,0.7
		c0.2,0.3,0.3,0.6,0.3,1H16c0-0.3-0.1-0.5-0.2-0.6s-0.4-0.2-0.6-0.2c-0.3,0-0.5,0.1-0.7,0.2c-0.2,0.1-0.2,0.3-0.2,0.5
		c0,0.2,0.1,0.3,0.3,0.4c0.2,0.1,0.5,0.3,0.9,0.4c0.4,0.1,0.8,0.3,1.1,0.5c0.7,0.4,1,0.9,1,1.6c0,0.6-0.2,1-0.6,1.3s-1,0.5-1.7,0.5
		c-0.5,0-1-0.1-1.4-0.3c-0.4-0.2-0.7-0.4-0.9-0.8c-0.2-0.3-0.3-0.7-0.3-1.1H14c0,0.3,0.1,0.6,0.3,0.8c0.2,0.2,0.5,0.2,0.9,0.2
		c0.3,0,0.5-0.1,0.6-0.2C15.9,25.2,15.9,25,15.9,24.8z"/>
	<path class="st0" d="M21.2,24.8l1.3-4.7h1.7l-2.2,6.4h-1.7l-2.1-6.4h1.7L21.2,24.8z"/>
</g>
</svg>
