<?xml version="1.0" encoding="utf-8"?>
<!-- Generator: Adobe Illustrator 26.5.0, SVG Export Plug-In . SVG Version: 6.00 Build 0)  -->
<svg version="1.1" xmlns="http://www.w3.org/2000/svg" xmlns:xlink="http://www.w3.org/1999/xlink" x="0px" y="0px"
	 viewBox="0 0 24 24" style="enable-background:new 0 0 24 24;" xml:space="preserve">
<style type="text/css">
	.st0{fill:#FFFFFF;}
</style>
<g id="Layer_1" focusable="false">
	<path d="M16,2H6C4.9,2,4,2.9,4,4l0,16c0,1.1,0.9,2,2,2h12c1.1,0,2-0.9,2-2V6L16,2z M18,15H6V4h9v3h3V15z"/>
</g>
<g id="Layer_2">
	<g>
		<path class="st0" d="M9.1,19.3c0,0.3-0.1,0.7-0.3,0.9s-0.4,0.5-0.7,0.6C7.8,20.9,7.5,21,7.1,21c-0.7,0-1.2-0.2-1.5-0.6
			C5.2,20,5,19.4,5,18.6v-0.2c0-0.5,0.1-0.9,0.3-1.3c0.2-0.4,0.4-0.6,0.7-0.8s0.7-0.3,1.1-0.3c0.6,0,1.1,0.2,1.5,0.5
			c0.4,0.3,0.6,0.8,0.6,1.3H7.9c0-0.3-0.1-0.5-0.2-0.7s-0.4-0.2-0.7-0.2c-0.3,0-0.5,0.1-0.7,0.3s-0.2,0.6-0.2,1.1v0.4
			c0,0.5,0.1,0.9,0.2,1.1c0.1,0.2,0.4,0.3,0.7,0.3c0.3,0,0.5-0.1,0.6-0.2s0.2-0.3,0.2-0.6H9.1z"/>
		<path class="st0" d="M12.6,19.6c0-0.2-0.1-0.3-0.2-0.4c-0.1-0.1-0.3-0.2-0.7-0.3c-0.3-0.1-0.6-0.2-0.8-0.3c-0.6-0.3-1-0.8-1-1.3
			c0-0.3,0.1-0.5,0.2-0.7c0.2-0.2,0.4-0.4,0.7-0.5s0.6-0.2,1-0.2c0.4,0,0.7,0.1,1,0.2c0.3,0.1,0.5,0.3,0.7,0.5
			c0.2,0.2,0.2,0.5,0.2,0.8h-1.2c0-0.2-0.1-0.4-0.2-0.5c-0.1-0.1-0.3-0.2-0.5-0.2c-0.2,0-0.4,0-0.5,0.1c-0.1,0.1-0.2,0.2-0.2,0.4
			c0,0.1,0.1,0.2,0.2,0.3s0.4,0.2,0.7,0.3c0.3,0.1,0.6,0.2,0.8,0.4c0.5,0.3,0.8,0.7,0.8,1.3c0,0.4-0.2,0.8-0.5,1
			C13,20.9,12.5,21,12,21c-0.4,0-0.8-0.1-1.1-0.2c-0.3-0.1-0.6-0.3-0.7-0.6C10,20,9.9,19.7,9.9,19.3h1.2c0,0.3,0.1,0.5,0.2,0.6
			c0.1,0.1,0.4,0.2,0.7,0.2c0.2,0,0.4,0,0.5-0.1C12.6,19.9,12.6,19.8,12.6,19.6z"/>
		<path class="st0" d="M16.7,19.6l1-3.6H19l-1.7,5h-1.3l-1.7-5h1.3L16.7,19.6z"/>
	</g>
</g>
</svg>
