<?xml version="1.0" encoding="utf-8"?>
<!-- Generator: Adobe Illustrator 26.5.0, SVG Export Plug-In . SVG Version: 6.00 Build 0)  -->
<svg version="1.1" id="Layer_1" focusable="false" xmlns="http://www.w3.org/2000/svg" xmlns:xlink="http://www.w3.org/1999/xlink"
	 x="0px" y="0px" viewBox="0 0 24 24" style="enable-background:new 0 0 24 24;" xml:space="preserve">
<path d="M20,8H10c-1.1,0-2,0.9-2,2v10c0,1.1,0.9,2,2,2h10c1.1,0,2-0.9,2-2V10C22,8.9,21.1,8,20,8z M20,10v2H10v-2H20z M14,16v-2h2v2
	H14z M16,18v2h-2v-2H16z M12,16h-2v-2h2V16z M18,14h2v2h-2V14z M10,18h2v2h-2V18z M18,20v-2h2v2H18z M7,16H4c-1.1,0-2-0.9-2-2V4
	c0-1.1,0.9-2,2-2h10c1.1,0,2,0.9,2,2v3h-2V4H4v10h3V16z"/>
<polygon points="4,8 4,6 14,6 14,7 7,7 7,8 "/>
<rect x="4" y="10" width="3" height="2"/>
<rect x="6" y="8" width="1" height="6"/>
<path d="M7,7h2C7.9,7,7,7.9,7,9V7z"/>
</svg>
