<?xml version="1.0" encoding="utf-8"?>
<!-- Generator: Adobe Illustrator 28.3.0, SVG Export Plug-In . SVG Version: 6.00 Build 0)  -->
<svg version="1.1" id="Layer_1" xmlns="http://www.w3.org/2000/svg" xmlns:xlink="http://www.w3.org/1999/xlink" x="0px" y="0px"
	 viewBox="0 0 612 792" style="enable-background:new 0 0 612 792;" xml:space="preserve">
<path d="M23.5,66.2l22.6-22.6H23.6V22.7l48.2-0.1c4.9,0,6.1,0.2,6.1,5.9v4l0,9.1L53.1,66.2h25.3c14.7,0,21.6-3.3,21.6-20.8V20.8
	C100,3.3,93.1,0,78.4,0H21.6C6.9,0,0,3.3,0,20.8v66.4C0,104.6,6.9,108,21.6,108h78.2V85.4H29.6c-4.9,0-6.1-0.2-6.1-5.9L23.5,66.2
	L23.5,66.2z"/>
</svg>
