<?xml version="1.0" encoding="utf-8"?>
<!-- Generator: Adobe Illustrator 26.5.0, SVG Export Plug-In . SVG Version: 6.00 Build 0)  -->
<svg version="1.1" xmlns="http://www.w3.org/2000/svg" xmlns:xlink="http://www.w3.org/1999/xlink" x="0px" y="0px"
	 viewBox="0 0 24 24" style="enable-background:new 0 0 24 24;" xml:space="preserve">
<style type="text/css">
	.st0{display:none;}
	.st1{display:inline;}
</style>
<g id="Layer_1" class="st0">
	<rect class="st1" width="24" height="3"/>
	<rect x="0" y="21" class="st1" width="24" height="3"/>
	<g class="st1">
		<rect y="4.2" width="11.5" height="3"/>
		<rect x="12.5" y="4.2" width="11.5" height="3"/>
	</g>
	<g class="st1">
		<rect x="12.5" y="16.8" width="11.5" height="3"/>
		<rect y="16.8" width="11.5" height="3"/>
	</g>
	<g class="st1">
		<rect y="12.6" width="5.5" height="3"/>
		<rect x="6.5" y="12.6" width="17.5" height="3"/>
	</g>
	<g class="st1">
		<rect y="8.4" width="17.5" height="3"/>
		<rect x="18.5" y="8.4" width="5.5" height="3"/>
	</g>
</g>
<g id="Layer_1_copy">
	<g>
		<path d="M13,2.6c0.1,0.1,0.1,0.3,0,0.4l-9.6,9.6c-0.1,0.1-0.3,0.1-0.4,0l-0.8-0.8c-0.1-0.1-0.1-0.3,0-0.4l9.6-9.6
			c0.1-0.1,0.3-0.1,0.4,0L13,2.6z"/>
	</g>
	<g>
		<path d="M21.8,11.3c0.1,0.1,0.1,0.3,0,0.4l-9.6,9.6c-0.1,0.1-0.3,0.1-0.4,0L11,20.5c-0.1-0.1-0.1-0.3,0-0.4l9.6-9.6
			c0.1-0.1,0.3-0.1,0.4,0L21.8,11.3z"/>
	</g>
	<g>
		<g>
			<g>
				<path d="M8.8,8.7c-0.1-0.1-0.3-0.1-0.4,0L4,13.1c-0.1,0.1-0.1,0.3,0,0.4l0.8,0.8c0.1,0.1,0.3,0.1,0.4,0L9.6,10
					c0.1-0.1,0.1-0.3,0-0.4L8.8,8.7z"/>
			</g>
			<g>
				<path d="M9.2,7.9C9.1,8,9.1,8.2,9.2,8.3L10,9.1c0.1,0.1,0.3,0.1,0.4,0l4.4-4.4c0.1-0.1,0.1-0.3,0-0.4L14,3.5
					c-0.1-0.1-0.3-0.1-0.4,0L9.2,7.9z"/>
			</g>
		</g>
	</g>
	<g>
		<g>
			<g>
				<path d="M14.4,13.1c-0.1,0.1-0.1,0.3,0,0.4l0.8,0.8c0.1,0.1,0.3,0.1,0.4,0L20,10c0.1-0.1,0.1-0.3,0-0.4l-0.8-0.8
					c-0.1-0.1-0.3-0.1-0.4,0L14.4,13.1z"/>
			</g>
			<g>
				<path d="M14,14c-0.1-0.1-0.3-0.1-0.4,0l-4.4,4.4c-0.1,0.1-0.1,0.3,0,0.4l0.8,0.8c0.1,0.1,0.3,0.1,0.4,0l4.4-4.4
					c0.1-0.1,0.1-0.3,0-0.4L14,14z"/>
			</g>
		</g>
	</g>
	<g>
		<g>
			<g>
				<path d="M9.8,14.7c-0.1-0.1-0.3-0.1-0.4,0l-1.9,1.9c-0.1,0.1-0.1,0.3,0,0.4l0.8,0.8c0.1,0.1,0.3,0.1,0.4,0l1.9-1.9
					c0.1-0.1,0.1-0.3,0-0.4L9.8,14.7z"/>
			</g>
			<g>
				<path d="M10.2,13.9c-0.1,0.1-0.1,0.3,0,0.4l0.8,0.8c0.1,0.1,0.3,0.1,0.4,0l6.9-6.9c0.1-0.1,0.1-0.3,0-0.4L17.5,7
					c-0.1-0.1-0.3-0.1-0.4,0L10.2,13.9z"/>
			</g>
		</g>
	</g>
	<g>
		<g>
			<g>
				<path d="M13,8c-0.1-0.1-0.3-0.1-0.4,0l-6.9,6.9c-0.1,0.1-0.1,0.3,0,0.4l0.8,0.8c0.1,0.1,0.3,0.1,0.4,0l6.9-6.9
					c0.1-0.1,0.1-0.3,0-0.4L13,8z"/>
			</g>
			<g>
				<path d="M13.4,7.1c-0.1,0.1-0.1,0.3,0,0.4l0.8,0.8c0.1,0.1,0.3,0.1,0.4,0l1.9-1.9c0.1-0.1,0.1-0.3,0-0.4l-0.8-0.8
					c-0.1-0.1-0.3-0.1-0.4,0L13.4,7.1z"/>
			</g>
		</g>
	</g>
</g>
</svg>
