<?xml version="1.0" encoding="utf-8"?>
<!-- Generator: Adobe Illustrator 26.5.0, SVG Export Plug-In . SVG Version: 6.00 Build 0)  -->
<svg version="1.1" id="Layer_2" xmlns="http://www.w3.org/2000/svg" xmlns:xlink="http://www.w3.org/1999/xlink" x="0px" y="0px"
	 viewBox="0 0 30 30" style="enable-background:new 0 0 30 30;" xml:space="preserve">
<path d="M16.4,3.4c0.1,0.1,0.1,0.3,0,0.4L3.8,16.4c-0.1,0.1-0.3,0.1-0.4,0l-1.2-1.2c-0.1-0.1-0.1-0.3,0-0.4L14.8,2.2
	c0.1-0.1,0.3-0.1,0.4,0L16.4,3.4z"/>
<path d="M27.8,14.8c0.1,0.1,0.1,0.3,0,0.4L15.2,27.8c-0.1,0.1-0.3,0.1-0.4,0l-1.2-1.2c-0.1-0.1-0.1-0.3,0-0.4l12.6-12.6
	c0.1-0.1,0.3-0.1,0.4,0L27.8,14.8z"/>
<g>
	<g>
		<path d="M10.7,11.3c-0.1-0.1-0.3-0.1-0.4,0l-5.8,5.8c-0.1,0.1-0.1,0.3,0,0.4l1.2,1.2c0.1,0.1,0.3,0.1,0.4,0l5.8-5.8
			c0.1-0.1,0.1-0.3,0-0.4L10.7,11.3z"/>
	</g>
	<g>
		<path d="M11.3,10.3c-0.1,0.1-0.1,0.3,0,0.4l1.2,1.2c0.1,0.1,0.3,0.1,0.4,0l5.8-5.8c0.1-0.1,0.1-0.3,0-0.4l-1.2-1.2
			c-0.1-0.1-0.3-0.1-0.4,0L11.3,10.3z"/>
	</g>
</g>
<g>
	<g>
		<path d="M18.1,17.1c-0.1,0.1-0.1,0.3,0,0.4l1.2,1.2c0.1,0.1,0.3,0.1,0.4,0l5.8-5.8c0.1-0.1,0.1-0.3,0-0.4l-1.2-1.2
			c-0.1-0.1-0.3-0.1-0.4,0L18.1,17.1z"/>
	</g>
	<g>
		<path d="M17.5,18.1c-0.1-0.1-0.3-0.1-0.4,0l-5.8,5.8c-0.1,0.1-0.1,0.3,0,0.4l1.2,1.2c0.1,0.1,0.3,0.1,0.4,0l5.8-5.8
			c0.1-0.1,0.1-0.3,0-0.4L17.5,18.1z"/>
	</g>
</g>
<g>
	<g>
		<path d="M12,19.1c-0.1-0.1-0.3-0.1-0.4,0L9,21.6c-0.1,0.1-0.1,0.3,0,0.4l1.2,1.2c0.1,0.1,0.3,0.1,0.4,0l2.6-2.6
			c0.1-0.1,0.1-0.3,0-0.4L12,19.1z"/>
	</g>
	<g>
		<path d="M12.6,18.1c-0.1,0.1-0.1,0.3,0,0.4l1.2,1.2c0.1,0.1,0.3,0.1,0.4,0l9.1-9.1c0.1-0.1,0.1-0.3,0-0.4L22,9
			c-0.1-0.1-0.3-0.1-0.4,0L12.6,18.1z"/>
	</g>
</g>
<g>
	<g>
		<path d="M16.2,10.3c-0.1-0.1-0.3-0.1-0.4,0l-9.1,9.1c-0.1,0.1-0.1,0.3,0,0.4L8,21c0.1,0.1,0.3,0.1,0.4,0l9.1-9.1
			c0.1-0.1,0.1-0.3,0-0.4L16.2,10.3z"/>
	</g>
	<g>
		<path d="M16.8,9.3c-0.1,0.1-0.1,0.3,0,0.4l1.2,1.2c0.1,0.1,0.3,0.1,0.4,0L21,8.4c0.1-0.1,0.1-0.3,0-0.4l-1.2-1.2
			c-0.1-0.1-0.3-0.1-0.4,0L16.8,9.3z"/>
	</g>
</g>
</svg>
