<?xml version="1.0" encoding="UTF-8"?>
<svg xmlns="http://www.w3.org/2000/svg" version="1.1" viewBox="0 0 612 792">
  <!-- Generator: Adobe Illustrator 28.7.1, SVG Export Plug-In . SVG Version: 1.2.0 Build 142)  -->
  <g>
    <g id="Layer_1">
      <g>
        <polygon points="30.2 70.5 36.7 65.5 36.7 58.2 31 53.7 23.4 58.7 21.9 56.4 29.7 51.2 29.7 44.2 22.6 39.5 14.2 44.3 14.2 49.7 20.6 46.5 21.9 49 14.2 52.8 14.2 60.9 21.2 64.4 27.6 60.6 29 63 22.7 66.8 22.7 77.9 32.5 83.9 41.5 77.5 43.2 79.8 35.1 85.5 39.6 88.3 48 83.5 48 60.4 32 72.7 30.2 70.5"/>
        <path d="M63.4,73c0-.8-.6-1.4-1.4-1.4s-1.4.6-1.4,1.4.6,1.4,1.4,1.4,1.4-.6,1.4-1.4Z"/>
        <path d="M71.9,54.8c0,.8.6,1.4,1.4,1.4s1.4-.6,1.4-1.4-.6-1.4-1.4-1.4-1.4.6-1.4,1.4Z"/>
        <path d="M74.7,37.9v-4.2h-3c-.6,1.7-2.2,2.9-4,2.9s-4.2-1.9-4.2-4.2,1.9-4.2,4.2-4.2,3.4,1.2,4,2.8h3v-3.5l-15.5-10.3-8.4,4.8v16.6s8.4,4.8,8.4,4.8c.8-.7,1.8-1.2,2.9-1.2,2.3,0,4.2,1.9,4.2,4.2s-1.9,4.2-4.2,4.2-4.2-1.9-4.2-4.2,0-.4,0-.6l-9.2-5.2c-.4-.3-.7-.7-.7-1.2v-17.4s-8.4-4.9-8.4-4.9l-5.6,3.3v13.4h-2.8v-11.7l-7,4.1v11.1l7,4.7,7-4.7v-7.7h2.8v8.4c0,.5-.2.9-.6,1.2l-7.8,5.2v7l6.5,5.2c.3.3.5.7.5,1.1v5.8l8.4-6.5v-4.1l-6.3-3.8,1.4-2.4,7,4.2c.4.3.7.7.7,1.2v19.7h7.3c.6-1.6,2.1-2.8,4-2.8s4.2,1.9,4.2,4.2-1.9,4.2-4.2,4.2-3.4-1.2-4-2.8h-7.3v9l8.4,4.8,16.9-10.4v-11.9c0-.5.3-1,.8-1.3l6.1-3-6.8-3.9c-.8.7-1.8,1.2-2.9,1.2-2.3,0-4.2-1.9-4.2-4.2s1.9-4.2,4.2-4.2,4.2,1.9,4.2,4.2,0,.4,0,.5l7.1,4.1v-15l-9.1-5.2c-.4-.3-.7-.7-.7-1.2Z"/>
        <path d="M66.2,32.3c0,.8.6,1.4,1.4,1.4s1.4-.6,1.4-1.4-.6-1.4-1.4-1.4-1.4.6-1.4,1.4Z"/>
        <path d="M78.4,0H21.6C6.9,0,0,3.3,0,20.8v66.4c0,17.4,6.9,20.8,21.6,20.8h56.8c14.7,0,21.6-3.3,21.6-20.8V20.8c0-17.5-6.9-20.8-21.6-20.8ZM87.3,61.8c0,.5-.3,1-.8,1.3l-7.7,3.8v11.8c0,.5-.3.9-.7,1.2l-18.3,11.2c-.4.3-1,.3-1.4,0l-9.1-5.2-9.1,5.2c-.2.1-.5.2-.7.2s-.5,0-.7-.2l-18.3-11.2c-.4-.3-.7-.7-.7-1.2v-11.8l-7.7-3.8c-.5-.2-.8-.7-.8-1.3v-2.2s0,0,0,0v-15.3s0,0,0,0v-.6c0-.5.3-1,.7-1.2l9.1-5.2v-11.8c0-.5.3-1,.7-1.2l16.9-9.8c.4-.3,1-.3,1.4,0l9.1,5.3,9.1-5.3c.5-.3,1-.2,1.5,0l16.9,11.2c.4.3.6.7.6,1.2v10.4l9.1,5.2c.4.3.7.7.7,1.2v18.3Z"/>
        <path d="M63.4,46.3c0-.8-.6-1.4-1.4-1.4s-1.4.6-1.4,1.4.6,1.4,1.4,1.4,1.4-.6,1.4-1.4Z"/>
      </g>
    </g>
  </g>
</svg>