<?xml version="1.0" encoding="utf-8"?>
<!-- Generator: Adobe Illustrator 26.5.0, SVG Export Plug-In . SVG Version: 6.00 Build 0)  -->
<svg version="1.1" id="Layer_1" focusable="false" xmlns="http://www.w3.org/2000/svg" xmlns:xlink="http://www.w3.org/1999/xlink"
	 x="0px" y="0px" viewBox="0 0 24 24" style="enable-background:new 0 0 24 24;" xml:space="preserve">
<style type="text/css">
	.st0{fill:none;stroke:#000000;stroke-miterlimit:10;}
</style>
<g>
	<path class="st0" d="M12,14.9c-2.2,0-4-0.7-4-1.7v2.4c0,0.9,1.8,1.7,4,1.7s4-0.7,4-1.7v-2.4C16,14.1,14.2,14.9,12,14.9z"/>
	<path class="st0" d="M12,12.5c-2.2,0-4-0.7-4-1.7v2.4c0,0.9,1.8,1.7,4,1.7s4-0.7,4-1.7v-2.4C16,11.8,14.2,12.5,12,12.5z"/>
	<path class="st0" d="M12,10.2c-2.2,0-4-0.7-4-1.7v2.3c0,0.9,1.8,1.7,4,1.7s4-0.7,4-1.7V8.5C16,9.4,14.2,10.2,12,10.2z"/>
	<path class="st0" d="M16,8.5c0-0.9-1.8-1.7-4-1.7S8,7.6,8,8.5"/>
</g>
<path d="M20,4h-3.2L15,2H9L7.2,4H4C2.9,4,2,4.9,2,6v12c0,1.1,0.9,2,2,2h16c1.1,0,2-0.9,2-2V6C22,4.9,21.1,4,20,4z M20,18H4V6h4.1
	l0.6-0.7L9.9,4h4.2l1.2,1.3L15.9,6H20V18z"/>
</svg>
