<?xml version="1.0" encoding="utf-8"?>
<!-- Generator: Adobe Illustrator 26.5.0, SVG Export Plug-In . SVG Version: 6.00 Build 0)  -->
<svg version="1.1" id="Layer_1" focusable="false" xmlns="http://www.w3.org/2000/svg" xmlns:xlink="http://www.w3.org/1999/xlink"
	 x="0px" y="0px" viewBox="0 0 30 30" style="enable-background:new 0 0 30 30;" xml:space="preserve">
<style type="text/css">
	.st0{fill:none;stroke:#000000;stroke-miterlimit:10;}
</style>
<g>
	<path class="st0" d="M15,18.9c-2.2,0-4-0.7-4-1.7v2.4c0,0.9,1.8,1.7,4,1.7s4-0.7,4-1.7v-2.4C19,18.1,17.2,18.9,15,18.9z"/>
	<path class="st0" d="M15,16.5c-2.2,0-4-0.7-4-1.7v2.4c0,0.9,1.8,1.7,4,1.7s4-0.7,4-1.7v-2.4C19,15.8,17.2,16.5,15,16.5z"/>
	<path class="st0" d="M15,14.2c-2.2,0-4-0.7-4-1.7v2.3c0,0.9,1.8,1.7,4,1.7s4-0.7,4-1.7v-2.3C19,13.4,17.2,14.2,15,14.2z"/>
	<path class="st0" d="M19,12.5c0-0.9-1.8-1.7-4-1.7s-4,0.7-4,1.7"/>
</g>
<path d="M26,7.5h-6.2l-1.8-2h-6l-1.8,2H4c-1.1,0-2,0.9-2,2v13c0,1.1,0.9,2,2,2h22c1.1,0,2-0.9,2-2v-13C28,8.4,27.1,7.5,26,7.5z
	 M26,22.5H4v-13h7.1l0.6-0.6l1.2-1.4h4.2l1.2,1.4L19,9.5h7V22.5z"/>
</svg>
