<?xml version="1.0" encoding="utf-8"?>
<!-- Generator: Adobe Illustrator 26.5.0, SVG Export Plug-In . SVG Version: 6.00 Build 0)  -->
<svg version="1.1" id="Layer_1" xmlns="http://www.w3.org/2000/svg" xmlns:xlink="http://www.w3.org/1999/xlink" x="0px" y="0px"
	 viewBox="0 0 30 30" style="enable-background:new 0 0 30 30;" xml:space="preserve">
<path id="Path" d="M23.6,21.4l-5.1-2.9c-0.7-0.4-1.6-0.2-2,0.5c-0.2,0.3-0.2,0.6-0.2,0.9v5.7c0,0.8,0.7,1.5,1.5,1.5
	c0.8,0,1.5-0.7,1.5-1.5v-3.3l2.8,1.6c0.7,0.4,1.6,0.2,2-0.5C24.6,22.7,24.3,21.8,23.6,21.4"/>
<path id="Path2" d="M11,15.1c0-0.5-0.3-1-0.7-1.3l-5.1-2.9c-0.2-0.1-0.5-0.2-0.7-0.2c-0.5,0-1,0.3-1.3,0.7c-0.4,0.7-0.2,1.6,0.5,2
	l2.9,1.7l-2.9,1.7c-0.3,0.2-0.6,0.5-0.7,0.9C3,18,3,18.4,3.2,18.7c0.3,0.4,0.7,0.7,1.3,0.7c0.3,0,0.5-0.1,0.7-0.2l5.1-2.9
	C10.7,16.1,11,15.6,11,15.1"/>
<path id="Path3" d="M6.4,8.8l5.1,2.9c0.6,0.3,1.3,0.2,1.8-0.2c0.3-0.3,0.5-0.7,0.5-1.1V4.5C13.7,3.7,13,3,12.2,3
	c-0.8,0-1.5,0.7-1.5,1.5v3.3L7.9,6.2C7.1,5.8,6.2,6,5.8,6.7C5.4,7.5,5.6,8.4,6.4,8.8"/>
<path id="Combined-Shape" d="M17.8,15.3c0,0.1-0.1,0.3-0.1,0.3l-2,2c-0.1,0.1-0.2,0.1-0.3,0.1h-0.5c-0.1,0-0.3-0.1-0.3-0.1l-2-2
	c-0.1-0.1-0.1-0.2-0.1-0.3v-0.5c0-0.1,0.1-0.3,0.1-0.3l2-2c0.1-0.1,0.2-0.1,0.3-0.1h0.5c0.1,0,0.3,0.1,0.3,0.1l2,2
	c0.1,0.1,0.1,0.2,0.1,0.3V15.3z M16,15.1L16,15.1c0-0.1,0-0.2-0.1-0.3l-0.6-0.6c-0.1-0.1-0.2-0.1-0.3-0.1h0c-0.1,0-0.2,0-0.3,0.1
	l-0.6,0.6C14.1,14.8,14,15,14,15v0c0,0.1,0,0.2,0.1,0.3l0.6,0.6C14.8,16,14.9,16,15,16h0c0.1,0,0.2,0,0.3-0.1l0.6-0.6
	C15.9,15.3,16,15.1,16,15.1z"/>
<path id="Path4" d="M18.6,11.7l5.1-2.9c0.7-0.4,1-1.3,0.5-2c-0.4-0.7-1.3-1-2-0.5l-2.8,1.6V4.5c0-0.8-0.7-1.5-1.5-1.5
	c-0.8,0-1.5,0.7-1.5,1.5v5.8c0,0.3,0,0.6,0.2,0.9C16.9,11.9,17.8,12.1,18.6,11.7"/>
<path id="Path5" d="M12.5,18.3c-0.3-0.1-0.7,0-1,0.2l-5.1,2.9c-0.7,0.4-1,1.3-0.5,2c0.4,0.7,1.3,1,2,0.5l2.9-1.7v3.3
	c0,0.8,0.7,1.5,1.5,1.5c0.8,0,1.5-0.7,1.5-1.5v-5.9C13.7,19,13.2,18.4,12.5,18.3"/>
<path id="Path6" d="M26.8,11.4c-0.4-0.7-1.3-1-2-0.5l-5.1,2.9c-0.5,0.3-0.8,0.8-0.7,1.3c0,0.5,0.3,1,0.7,1.3l5.1,2.9
	c0.7,0.4,1.6,0.2,2-0.5c0.4-0.7,0.2-1.6-0.5-2l-2.9-1.7l2.9-1.7C27,13,27.2,12.1,26.8,11.4"/>
</svg>
