<?xml version="1.0" encoding="utf-8"?>
<!-- Generator: Adobe Illustrator 26.5.0, SVG Export Plug-In . SVG Version: 6.00 Build 0)  -->
<svg version="1.1" id="Layer_1" xmlns="http://www.w3.org/2000/svg" xmlns:xlink="http://www.w3.org/1999/xlink" x="0px" y="0px"
	 viewBox="0 0 24 24" style="enable-background:new 0 0 24 24;" xml:space="preserve">
<path id="Path" d="M19.12,17.25l-4.19-2.42c-0.59-0.34-1.34-0.14-1.68,0.45c-0.13,0.23-0.18,0.49-0.16,0.73v4.73
	c0,0.68,0.55,1.22,1.23,1.22c0.68,0,1.22-0.55,1.22-1.22v-2.72l2.34,1.35c0.59,0.34,1.34,0.14,1.68-0.45
	C19.91,18.34,19.71,17.59,19.12,17.25"/>
<path id="Path2" d="M8.71,12.07c0.01-0.44-0.22-0.84-0.6-1.06L3.93,8.59c-0.18-0.11-0.39-0.16-0.6-0.16c-0.43,0-0.83,0.23-1.04,0.6
	c-0.33,0.57-0.13,1.31,0.44,1.64l2.41,1.39l-2.41,1.39c-0.28,0.16-0.48,0.42-0.56,0.73c-0.08,0.31-0.04,0.63,0.12,0.91
	c0.21,0.37,0.61,0.6,1.04,0.6c0.21,0,0.42-0.06,0.6-0.16l4.19-2.42C8.48,12.91,8.71,12.5,8.71,12.07"/>
<path id="Path3" d="M4.88,6.88L9.06,9.3c0.49,0.28,1.09,0.19,1.48-0.19c0.24-0.22,0.4-0.55,0.4-0.9V3.37c0-0.68-0.55-1.23-1.22-1.23
	c-0.68,0-1.23,0.55-1.23,1.23v2.76L6.1,4.75C5.52,4.41,4.76,4.61,4.42,5.2S4.29,6.54,4.88,6.88"/>
<path id="Combined-Shape" d="M14.29,12.27c0,0.09-0.05,0.22-0.12,0.29l-1.66,1.66c-0.07,0.07-0.2,0.12-0.29,0.12H11.8
	c-0.09,0-0.22-0.05-0.29-0.12l-1.66-1.66c-0.07-0.07-0.12-0.2-0.12-0.29v-0.42c0-0.09,0.05-0.22,0.12-0.29l1.66-1.66
	c0.07-0.07,0.2-0.12,0.29-0.12h0.42c0.09,0,0.22,0.05,0.29,0.12l1.66,1.66c0.07,0.07,0.12,0.19,0.12,0.29V12.27z M12.81,12.06v-0.02
	c0-0.07-0.04-0.16-0.09-0.21l-0.49-0.49c-0.05-0.05-0.14-0.09-0.21-0.09H12c-0.07,0-0.16,0.04-0.21,0.09l-0.49,0.49
	c-0.05,0.05-0.09,0.14-0.09,0.21v0.02c0,0.07,0.04,0.16,0.09,0.21l0.49,0.49c0.05,0.05,0.14,0.09,0.21,0.09h0.02
	c0.07,0,0.16-0.04,0.21-0.09l0.49-0.49C12.77,12.23,12.81,12.13,12.81,12.06z"/>
<path id="Path4" d="M14.93,9.3l4.19-2.42c0.59-0.34,0.79-1.09,0.45-1.68c-0.34-0.59-1.09-0.79-1.68-0.45L15.55,6.1V3.37
	c0-0.68-0.55-1.23-1.22-1.23c-0.68,0-1.23,0.55-1.23,1.23v4.75c-0.02,0.25,0.02,0.5,0.16,0.73C13.6,9.43,14.35,9.64,14.93,9.3"/>
<path id="Path5" d="M9.9,14.69c-0.28-0.05-0.58-0.01-0.84,0.14l-4.19,2.42c-0.59,0.34-0.79,1.09-0.45,1.68
	c0.34,0.59,1.09,0.79,1.68,0.45l2.38-1.37v2.74c0,0.68,0.55,1.22,1.23,1.22c0.68,0,1.22-0.55,1.22-1.22V15.9
	C10.93,15.29,10.48,14.78,9.9,14.69"/>
<path id="Path6" d="M21.74,9.02c-0.34-0.59-1.09-0.79-1.68-0.45l-4.19,2.42c-0.4,0.23-0.62,0.66-0.61,1.09
	c0,0.43,0.22,0.85,0.61,1.08l4.19,2.42c0.59,0.34,1.34,0.14,1.68-0.45c0.34-0.59,0.14-1.34-0.45-1.68l-2.37-1.37l2.37-1.37
	C21.87,10.36,22.08,9.61,21.74,9.02"/>
</svg>
