<?xml version="1.0" encoding="utf-8"?>
<!-- Generator: Adobe Illustrator 26.5.0, SVG Export Plug-In . SVG Version: 6.00 Build 0)  -->
<svg version="1.1" id="Layer_1" focusable="false" xmlns="http://www.w3.org/2000/svg" xmlns:xlink="http://www.w3.org/1999/xlink"
	 x="0px" y="0px" viewBox="0 0 24 24" style="enable-background:new 0 0 24 24;" xml:space="preserve">
<path d="M11.3,20l-0.2-1.3L11,17.5l-1.1-0.4c-0.4-0.2-0.8-0.4-1.2-0.7l-0.9-0.7l-1.1,0.4l-1.3,0.5l-0.7-1.2l1.1-0.8l0.9-0.7
	l-0.1-1.1c0-0.3,0-0.5,0-0.7s0-0.4,0-0.7l0.1-1.1L5.8,9.4L4.7,8.6l0.7-1.2l1.3,0.5l1,0.4l0.9-0.7c0.4-0.3,0.8-0.6,1.2-0.7l1.1-0.4
	l0.2-1.1L11.3,4H13l0.5-2H10C9.8,2,9.5,2.2,9.5,2.4L9.1,5.1C8.5,5.3,8,5.7,7.4,6L5,5C4.9,5,4.8,5,4.8,5C4.6,5,4.4,5.1,4.3,5.3
	l-2,3.5C2.2,9,2.3,9.2,2.5,9.4L4.6,11c0,0.3-0.1,0.6-0.1,1s0,0.7,0.1,1l-2.1,1.7c-0.2,0.1-0.2,0.4-0.1,0.6l2,3.5
	C4.4,18.9,4.6,19,4.8,19c0.1,0,0.1,0,0.2,0l2.5-1c0.5,0.4,1.1,0.7,1.7,1l0.4,2.7c0,0.2,0.2,0.4,0.5,0.4h3.5L13,20H11.3z"/>
<path d="M19.5,17c-1,0-1.9,0.6-2.2,1.5H16v-4c0-0.3-0.2-0.5-0.5-0.5H12c-1.1,0-2-0.9-2-2s0.9-2,2-2h3.5c0.3,0,0.5-0.2,0.5-0.5v-4
	h1.2C17.6,6.4,18.5,7,19.5,7C20.9,7,22,5.9,22,4.5S20.9,2,19.5,2c-1,0-1.9,0.6-2.3,1.5h-2.7C14.2,3.5,14,3.7,14,4v4h-2
	c-2.2,0-4,1.8-4,4s1.8,4,4,4h2v4c0,0.3,0.2,0.5,0.5,0.5h2.8c0.4,0.9,1.2,1.5,2.2,1.5c1.4,0,2.5-1.1,2.5-2.5S20.9,17,19.5,17z"/>
<path d="M19.5,9.5c-1,0-1.9,0.6-2.3,1.5H12c-0.6,0-1,0.4-1,1s0.4,1,1,1h5.2c0.4,0.9,1.3,1.5,2.3,1.5c1.4,0,2.5-1.1,2.5-2.5
	S20.9,9.5,19.5,9.5z"/>
</svg>
