<?xml version="1.0" encoding="utf-8"?>
<!-- Generator: Adobe Illustrator 26.5.0, SVG Export Plug-In . SVG Version: 6.00 Build 0)  -->
<svg version="1.1" id="Layer_1" focusable="false" xmlns="http://www.w3.org/2000/svg" xmlns:xlink="http://www.w3.org/1999/xlink"
	 x="0px" y="0px" viewBox="0 0 24 24" style="enable-background:new 0 0 24 24;" xml:space="preserve">
<style type="text/css">
	.st0{fill:#231F20;}
</style>
<path class="st0" d="M18.6,8.6c-1.9,0-3.4,1.5-3.4,3.4s1.5,3.4,3.4,3.4S22,13.9,22,12S20.5,8.6,18.6,8.6z M18.6,13.7
	c-0.9,0-1.7-0.8-1.7-1.7s0.8-1.7,1.7-1.7c0.9,0,1.7,0.8,1.7,1.7S19.5,13.7,18.6,13.7z"/>
<path class="st0" d="M5.4,8.9c-1.7,0-3.1,1.4-3.1,3.1s1.4,3.1,3.1,3.1s3.1-1.4,3.1-3.1S7.1,8.9,5.4,8.9z M5.4,13.6
	c-0.9,0-1.6-0.7-1.6-1.6s0.7-1.6,1.6-1.6s1.5,0.7,1.5,1.6S6.3,13.6,5.4,13.6z"/>
<path class="st0" d="M12,1.9c-1.9,0-3.5,1.6-3.5,3.5s1.6,3.5,3.5,3.5s3.5-1.6,3.5-3.5S13.9,1.9,12,1.9z M12,7.2
	c-1,0-1.8-0.8-1.8-1.8S11,3.7,12,3.7s1.8,0.8,1.8,1.8S13,7.2,12,7.2z"/>
<path class="st0" d="M12,15.2c-1.9,0-3.4,1.5-3.4,3.4S10.1,22,12,22s3.4-1.5,3.4-3.4S13.9,15.2,12,15.2z M12,20.3
	c-0.9,0-1.7-0.8-1.7-1.7c0-0.9,0.8-1.7,1.7-1.7s1.7,0.8,1.7,1.7C13.7,19.5,12.9,20.3,12,20.3z"/>
<path class="st0" d="M15,4.2c-0.2,0-0.4,0.2-0.4,0.4v1.2c0,0.2,0.2,0.4,0.4,0.4h3l0,0.4V9c0,0.2,0.2,0.4,0.4,0.4h1.2
	C19.8,9.4,20,9.2,20,9V6.5c0-0.2,0-0.6,0-0.8V5.5c0-0.2,0-0.6,0-0.8V4.6c0-0.2-0.2-0.4-0.4-0.4H15z"/>
<path class="st0" d="M9,19.8c0.2,0,0.4-0.2,0.4-0.4v-1.2c0-0.2-0.2-0.4-0.4-0.4H6.5l-0.4,0V15c0-0.2-0.2-0.4-0.4-0.4H4.6
	c-0.2,0-0.4,0.2-0.4,0.4v2.5c0,0.2,0,0.6,0,0.8v0.2c0,0.2,0,0.6,0,0.8v0.2c0,0.2,0.2,0.4,0.4,0.4H9z"/>
<rect x="7.5" y="11" class="st0" width="8" height="2"/>
<g>
	<path class="st0" d="M6.3,6.1c0,0.2-0.1,0.3-0.3,0.3H3.8c-0.2,0-0.3-0.1-0.3-0.3V4.7c0-0.2,0.1-0.3,0.3-0.3h2.3
		c0.2,0,0.3,0.1,0.3,0.3V6.1z"/>
</g>
<g>
	<path class="st0" d="M6.2,7.1c0,0.2,0.1,0.2,0.2,0.1l1.9-1.6c0.1-0.1,0.1-0.3,0-0.4L6.4,3.6C6.3,3.5,6.2,3.5,6.2,3.7V7.1z"/>
</g>
<g>
	<path class="st0" d="M19.1,20.2c0,0.2,0.1,0.2,0.2,0.1l1.9-1.6c0.1-0.1,0.1-0.3,0-0.4l-1.9-1.6c-0.1-0.1-0.2-0.1-0.2,0.1V20.2z"/>
</g>
<rect x="14.6" y="17.6" class="st0" width="5.2" height="2"/>
</svg>
