<?xml version="1.0" encoding="utf-8"?>
<!-- Generator: Adobe Illustrator 26.5.0, SVG Export Plug-In . SVG Version: 6.00 Build 0)  -->
<svg version="1.1" id="Layer_1" focusable="false" xmlns="http://www.w3.org/2000/svg" xmlns:xlink="http://www.w3.org/1999/xlink"
	 x="0px" y="0px" viewBox="0 0 24 24" style="enable-background:new 0 0 24 24;" xml:space="preserve">
<path d="M20,2H4C2.9,2,2,2.9,2,4v16c0,1.1,0.9,2,2,2h16c1.1,0,2-0.9,2-2V4C22,2.9,21.1,2,20,2z M20,20H4V4h16V20z M12,10.5
	c2.1,0,4.1,1.6,5.1,3.5c-1,1.9-2.9,3.5-5.1,3.5S7.9,15.9,6.9,14C7.9,12.1,9.9,10.5,12,10.5 M12,9c-3.2,0-5.9,2.1-7,5
	c1.1,2.9,3.8,5,7,5s5.9-2.1,7-5C17.9,11.1,15.2,9,12,9z"/>
<rect x="4" y="6" width="16" height="2"/>
<circle cx="12" cy="14" r="2"/>
</svg>
