<?xml version="1.0" encoding="utf-8"?>
<!-- Generator: Adobe Illustrator 26.5.0, SVG Export Plug-In . SVG Version: 6.00 Build 0)  -->
<svg version="1.1" id="Layer_1" focusable="false" xmlns="http://www.w3.org/2000/svg" xmlns:xlink="http://www.w3.org/1999/xlink"
	 x="0px" y="0px" viewBox="0 0 30 30" style="enable-background:new 0 0 30 30;" xml:space="preserve">
<path d="M26,2H4C2.9,2,2,2.9,2,4v22c0,1.1,0.9,2,2,2h22c1.1,0,2-0.9,2-2V4C28,2.9,27.1,2,26,2z M26,26H4V4h22V26z"/>
<rect x="4" y="6" width="22" height="2"/>
<path d="M15,11c-3.8,0-7.1,2.5-8.4,6c1.3,3.5,4.6,6,8.4,6s7.1-2.5,8.4-6C22.1,13.5,18.8,11,15,11z M15,21.2c-2.6,0-4.9-1.9-6.1-4.2
	c1.2-2.3,3.5-4.2,6.1-4.2s4.9,1.9,6.1,4.2C19.9,19.3,17.6,21.2,15,21.2z"/>
<circle cx="15" cy="17" r="2.4"/>
</svg>
