<?xml version="1.0" encoding="utf-8"?>
<!-- Generator: Adobe Illustrator 26.5.0, SVG Export Plug-In . SVG Version: 6.00 Build 0)  -->
<svg version="1.1" id="Layer_2" xmlns="http://www.w3.org/2000/svg" xmlns:xlink="http://www.w3.org/1999/xlink" x="0px" y="0px"
	 viewBox="0 0 30 30" style="enable-background:new 0 0 30 30;" xml:space="preserve">
<style type="text/css">
	.st0{fill:none;stroke:#000000;stroke-width:1.5;stroke-miterlimit:10;}
	.st1{fill:none;stroke:#000000;stroke-miterlimit:10;}
	.st2{fill:none;stroke:#000000;stroke-width:0.75;stroke-miterlimit:10;}
</style>
<g>
	<line class="st0" x1="15" y1="10.6" x2="15" y2="19.4"/>
	<line class="st0" x1="10.6" y1="15" x2="19.4" y2="15"/>
</g>
<g>
	<line class="st1" x1="8.5" y1="16.4" x2="8.5" y2="24.6"/>
	<line class="st1" x1="4.4" y1="20.5" x2="12.6" y2="20.5"/>
</g>
<g>
	<line class="st2" x1="4.4" y1="12.6" x2="4.4" y2="17.4"/>
	<line class="st2" x1="2" y1="15" x2="6.8" y2="15"/>
</g>
<g>
	<line class="st2" x1="25.6" y1="12.6" x2="25.6" y2="17.4"/>
	<line class="st2" x1="23.2" y1="15" x2="28" y2="15"/>
</g>
<g>
	<line class="st2" x1="15" y1="2" x2="15" y2="6.8"/>
	<line class="st2" x1="12.6" y1="4.4" x2="17.4" y2="4.4"/>
</g>
<g>
	<line class="st2" x1="15" y1="23.2" x2="15" y2="28"/>
	<line class="st2" x1="12.6" y1="25.6" x2="17.4" y2="25.6"/>
</g>
<g>
	<line class="st1" x1="21.5" y1="16.4" x2="21.5" y2="24.6"/>
	<line class="st1" x1="17.4" y1="20.5" x2="25.6" y2="20.5"/>
</g>
<g>
	<line class="st1" x1="8.5" y1="4.7" x2="8.5" y2="12.9"/>
	<line class="st1" x1="4.4" y1="8.8" x2="12.6" y2="8.8"/>
</g>
<g>
	<line class="st1" x1="21.5" y1="4.7" x2="21.5" y2="12.9"/>
	<line class="st1" x1="17.4" y1="8.8" x2="25.6" y2="8.8"/>
</g>
</svg>
