<?xml version="1.0" encoding="utf-8"?>
<!-- Generator: Adobe Illustrator 26.5.0, SVG Export Plug-In . SVG Version: 6.00 Build 0)  -->
<svg version="1.1" id="Layer_1" focusable="false" xmlns="http://www.w3.org/2000/svg" xmlns:xlink="http://www.w3.org/1999/xlink"
	 x="0px" y="0px" viewBox="0 0 30 30" style="enable-background:new 0 0 30 30;" xml:space="preserve">
<style type="text/css">
	.st0{fill:none;stroke:#000000;stroke-miterlimit:10;}
	.st1{fill:none;stroke:#000000;stroke-width:0.75;stroke-miterlimit:10;}
	.st2{fill:none;stroke:#000000;stroke-width:0.5;stroke-miterlimit:10;}
</style>
<path d="M21,2H7C5.9,2,5,2.9,5,4l0,22c0,1.1,0.9,2,2,2h16c1.1,0,2-0.9,2-2V6L21,2z M23,26H7V4h13v3h3V26z"/>
<g>
	<g>
		<line class="st0" x1="15" y1="14.8" x2="15" y2="19.2"/>
		<line class="st0" x1="12.8" y1="17" x2="17.2" y2="17"/>
	</g>
	<g>
		<line class="st1" x1="11.6" y1="17.8" x2="11.6" y2="21.9"/>
		<line class="st1" x1="9.6" y1="19.9" x2="13.7" y2="19.9"/>
	</g>
	<g>
		<line class="st2" x1="9.7" y1="15.8" x2="9.7" y2="18.2"/>
		<line class="st2" x1="8.5" y1="17" x2="10.9" y2="17"/>
	</g>
	<g>
		<line class="st2" x1="20.3" y1="15.8" x2="20.3" y2="18.2"/>
		<line class="st2" x1="19.1" y1="17" x2="21.5" y2="17"/>
	</g>
	<g>
		<line class="st2" x1="15" y1="10.5" x2="15" y2="12.9"/>
		<line class="st2" x1="13.8" y1="11.7" x2="16.2" y2="11.7"/>
	</g>
	<g>
		<line class="st2" x1="15" y1="21.1" x2="15" y2="23.5"/>
		<line class="st2" x1="13.8" y1="22.3" x2="16.2" y2="22.3"/>
	</g>
	<g>
		<line class="st1" x1="18.2" y1="17.8" x2="18.2" y2="21.9"/>
		<line class="st1" x1="16.1" y1="19.9" x2="20.3" y2="19.9"/>
	</g>
	<g>
		<line class="st1" x1="11.6" y1="11.9" x2="11.6" y2="16"/>
		<line class="st1" x1="9.6" y1="14" x2="13.7" y2="14"/>
	</g>
	<g>
		<line class="st1" x1="18.2" y1="11.9" x2="18.2" y2="16"/>
		<line class="st1" x1="16.1" y1="14" x2="20.3" y2="14"/>
	</g>
</g>
</svg>
