<?xml version="1.0" encoding="utf-8"?>
<!-- Generator: Adobe Illustrator 26.5.0, SVG Export Plug-In . SVG Version: 6.00 Build 0)  -->
<svg version="1.1" id="Layer_1" focusable="false" xmlns="http://www.w3.org/2000/svg" xmlns:xlink="http://www.w3.org/1999/xlink"
	 x="0px" y="0px" viewBox="0 0 24 24" style="enable-background:new 0 0 24 24;" xml:space="preserve">
<style type="text/css">
	.st0{fill:none;stroke:#000000;stroke-miterlimit:10;}
	.st1{fill:none;stroke:#000000;stroke-width:0.75;stroke-miterlimit:10;}
	.st2{fill:none;stroke:#000000;stroke-width:0.5;stroke-miterlimit:10;}
</style>
<path d="M16,2H6C4.9,2,4,2.9,4,4l0,16c0,1.1,0.9,2,2,2h12c1.1,0,2-0.9,2-2V6L16,2z M18,20H6V4h9v3h3V20z"/>
<g>
	<g>
		<line class="st0" x1="11.9" y1="12.2" x2="11.9" y2="16"/>
		<line class="st0" x1="10" y1="14.1" x2="13.8" y2="14.1"/>
	</g>
	<g>
		<line class="st1" x1="9.1" y1="14.7" x2="9.1" y2="18.2"/>
		<line class="st1" x1="7.4" y1="16.4" x2="10.9" y2="16.4"/>
	</g>
	<g>
		<line class="st2" x1="7.4" y1="13.1" x2="7.4" y2="15.1"/>
		<line class="st2" x1="6.4" y1="14.1" x2="8.4" y2="14.1"/>
	</g>
	<g>
		<line class="st2" x1="16.5" y1="13.1" x2="16.5" y2="15.1"/>
		<line class="st2" x1="15.4" y1="14.1" x2="17.5" y2="14.1"/>
	</g>
	<g>
		<line class="st2" x1="11.9" y1="8.5" x2="11.9" y2="10.6"/>
		<line class="st2" x1="10.9" y1="9.5" x2="13" y2="9.5"/>
	</g>
	<g>
		<line class="st2" x1="11.9" y1="17.6" x2="11.9" y2="19.7"/>
		<line class="st2" x1="10.9" y1="18.6" x2="13" y2="18.6"/>
	</g>
	<g>
		<line class="st1" x1="14.7" y1="14.7" x2="14.7" y2="18.2"/>
		<line class="st1" x1="13" y1="16.4" x2="16.5" y2="16.4"/>
	</g>
	<g>
		<line class="st1" x1="9.1" y1="9.7" x2="9.1" y2="13.2"/>
		<line class="st1" x1="7.4" y1="11.4" x2="10.9" y2="11.4"/>
	</g>
	<g>
		<line class="st1" x1="14.7" y1="9.7" x2="14.7" y2="13.2"/>
		<line class="st1" x1="13" y1="11.4" x2="16.5" y2="11.4"/>
	</g>
</g>
</svg>
