<?xml version="1.0" encoding="utf-8"?>
<!-- Generator: Adobe Illustrator 26.5.0, SVG Export Plug-In . SVG Version: 6.00 Build 0)  -->
<svg version="1.1" xmlns="http://www.w3.org/2000/svg" xmlns:xlink="http://www.w3.org/1999/xlink" x="0px" y="0px"
	 viewBox="0 0 24 24" style="enable-background:new 0 0 24 24;" xml:space="preserve">
<style type="text/css">
	.st0{display:none;}
	.st1{display:inline;fill:none;stroke:#000000;stroke-width:0.25;stroke-miterlimit:10;}
	.st2{display:inline;fill:#E8762E;}
	.st3{display:inline;fill:#C72038;}
	.st4{display:inline;fill:#5C879B;}
	.st5{display:inline;fill:#5D6792;}
	.st6{display:inline;fill:#EB9126;}
	.st7{display:inline;fill-rule:evenodd;clip-rule:evenodd;fill:#1F467E;}
	.st8{display:inline;fill:#7299A6;}
	.st9{fill:none;stroke:#000000;stroke-width:1.5;stroke-miterlimit:10;}
	.st10{fill:none;stroke:#000000;stroke-miterlimit:10;}
	.st11{fill:none;stroke:#000000;stroke-width:0.75;stroke-miterlimit:10;}
</style>
<g id="Layer_1" class="st0">
	<circle class="st1" cx="12" cy="12" r="9.5"/>
</g>
<g id="Layer_2_copy" class="st0">
	<path class="st2" d="M11.5,15h1v-2.8h2.6v-1h-2.6V8.4h-1v2.8H9v1h2.6V15z"/>
	<path class="st3" d="M6.8,19.1h0.9v-2.5h2.3v-0.8H7.6v-2.5H6.8v2.5H4.5v0.8h2.3V19.1z"/>
	<path class="st4" d="M16.5,10.1h0.9V7.6h2.3V6.8h-2.3V4.3h-0.9v2.5h-2.3v0.7h2.3V10.1z"/>
	<path class="st5" d="M11.7,21h0.7v-1.8H14v-0.7h-1.6v-1.8h-0.7v1.8h-1.6v0.7h1.6V21z"/>
	<path class="st6" d="M6.8,10.1h0.8V7.5h2.3V6.8H7.6V4.3H6.8v2.5H4.5v0.7h2.3V10.1z"/>
	<path class="st5" d="M19.1,13.8h0.7v-1.7h1.6v-0.7h-1.6V9.6h-0.7v1.7h-1.6v0.7h1.6V13.8z"/>
	<path class="st7" d="M16.5,19.1h0.9v-2.5h2.3v-0.8h-2.3v-2.5h-0.9v2.5h-2.3v0.8h2.3V19.1z"/>
	<path class="st8" d="M13.9,4.7V4.2h-1.6V2.5h-0.6v1.7h-1.6v0.5h1.6v1.7h0.6V4.7H13.9z M4.2,13.7h0.6V12h1.6v-0.5H4.8V9.8H4.2v1.7
		H2.7V12l1.6,0V13.7z"/>
</g>
<g id="Layer_2">
	<g>
		<line class="st9" x1="12" y1="8.8" x2="12" y2="15.2"/>
		<line class="st9" x1="8.8" y1="12" x2="15.2" y2="12"/>
	</g>
	<g>
		<line class="st10" x1="7.2" y1="13" x2="7.2" y2="19"/>
		<line class="st10" x1="4.2" y1="16" x2="10.2" y2="16"/>
	</g>
	<g>
		<line class="st11" x1="4.2" y1="10.2" x2="4.2" y2="13.8"/>
		<line class="st11" x1="2.5" y1="12" x2="6" y2="12"/>
	</g>
	<g>
		<line class="st11" x1="19.8" y1="10.2" x2="19.8" y2="13.8"/>
		<line class="st11" x1="18" y1="12" x2="21.5" y2="12"/>
	</g>
	<g>
		<line class="st11" x1="12" y1="2.5" x2="12" y2="6"/>
		<line class="st11" x1="10.2" y1="4.2" x2="13.8" y2="4.2"/>
	</g>
	<g>
		<line class="st11" x1="12" y1="18" x2="12" y2="21.5"/>
		<line class="st11" x1="10.2" y1="19.8" x2="13.8" y2="19.8"/>
	</g>
	<g>
		<line class="st10" x1="16.8" y1="13" x2="16.8" y2="19"/>
		<line class="st10" x1="13.8" y1="16" x2="19.8" y2="16"/>
	</g>
	<g>
		<line class="st10" x1="7.2" y1="4.5" x2="7.2" y2="10.5"/>
		<line class="st10" x1="4.2" y1="7.5" x2="10.2" y2="7.5"/>
	</g>
	<g>
		<line class="st10" x1="16.8" y1="4.5" x2="16.8" y2="10.5"/>
		<line class="st10" x1="13.8" y1="7.5" x2="19.8" y2="7.5"/>
	</g>
</g>
</svg>
