<?xml version="1.0" encoding="utf-8"?>
<!-- Generator: Adobe Illustrator 26.5.0, SVG Export Plug-In . SVG Version: 6.00 Build 0)  -->
<svg version="1.1" id="Layer_1" focusable="false" xmlns="http://www.w3.org/2000/svg" xmlns:xlink="http://www.w3.org/1999/xlink"
	 x="0px" y="0px" viewBox="0 0 24 24" style="enable-background:new 0 0 24 24;" xml:space="preserve">
<style type="text/css">
	.st0{fill:#FFFFFF;}
</style>
<path d="M16,2H6C4.9,2,4,2.9,4,4l0,16c0,1.1,0.9,2,2,2h12c1.1,0,2-0.9,2-2V6L16,2z M18,15H6V4h9v3h3V15z"/>
<g id="Layer_2">
	<g>
		<path class="st0" d="M7.3,17.6L8.1,16h1.4l-1.4,2.5L9.5,21H8.1l-0.8-1.7L6.4,21H5l1.4-2.5L5.1,16h1.4L7.3,17.6z"/>
		<path class="st0" d="M11.1,16l1.1,3.5l1.1-3.5h1.6v5h-1.2v-1.2l0.1-2.4L12.6,21h-0.8l-1.2-3.5l0.1,2.4V21H9.5v-5H11.1z"/>
		<path class="st0" d="M16.5,20h2.1V21h-3.3v-5h1.2V20z"/>
	</g>
</g>
</svg>
