<?xml version="1.0" encoding="utf-8"?>
<!-- Generator: Adobe Illustrator 26.5.0, SVG Export Plug-In . SVG Version: 6.00 Build 0)  -->
<svg version="1.1" id="Layer_1" focusable="false" xmlns="http://www.w3.org/2000/svg" xmlns:xlink="http://www.w3.org/1999/xlink"
	 x="0px" y="0px" viewBox="0 0 30 30" style="enable-background:new 0 0 30 30;" xml:space="preserve">
<style type="text/css">
	.st0{fill:#FFFFFF;}
</style>
<path d="M21,2H7C5.9,2,5,2.9,5,4l0,22c0,1.1,0.9,2,2,2h16c1.1,0,2-0.9,2-2V6L21,2z M23,19H7V4h13v3h3V19z"/>
<g>
	<path class="st0" d="M9.1,22.2l1-2.1h1.8l-1.8,3.2l1.8,3.2h-1.8l-1.1-2.2L8,26.5H6.2L8,23.3l-1.8-3.2H8L9.1,22.2z"/>
	<path class="st0" d="M14,20.1l1.4,4.5l1.4-4.5h2v6.4h-1.5V25l0.2-3.1l-1.5,4.6h-1l-1.6-4.6l0.1,3.1v1.5H12v-6.4H14z"/>
	<path class="st0" d="M21,25.3h2.7v1.2h-4.2v-6.4H21V25.3z"/>
</g>
</svg>
